<svg xmlns="http://www.w3.org/2000/svg" viewBox="0 0 74.39 115.33"><defs><style>.cls-1{fill:none;stroke:#a5b4ea;stroke-linecap:round;stroke-linejoin:round;stroke-width:7.2px;}</style></defs><title>cantarmdpi</title><g id="Capa_2" data-name="Capa 2"><g id="Capa_3" data-name="Capa 3"><g id="cantar"><path id="Vector" class="cls-1" d="M16.13,111.05c-2-3.56,6.1-9.55,10.26-19.83S32.65,72.55,33,68.35s-.77-18.83-2.45-22.75"/><path id="Vector_2" data-name="Vector 2" class="cls-1" d="M38.2,4.14C25,.49,9.29,16.28,21.85,27.61c11.83,10.69,26.65,0,19.37-14.46"/><path id="Vector_3" data-name="Vector 3" class="cls-1" d="M36.15,43.5c7.24,20.24-1.57,44.68,3.5,64.05"/><path id="Vector_4" data-name="Vector 4" class="cls-1" d="M3.6,32C9.35,42.7,20,47.2,29.85,45.09"/><path id="Vector_5" data-name="Vector 5" class="cls-1" d="M63.65,40.35c-5,7.56-14.85,5.64-25.75,3.22"/><path id="Vector_6" data-name="Vector 6" class="cls-1" d="M68.52,37.85C71.71,24.47,54,15,59.44,30.53c1.34,3.82,8.09,11.5,8.7,4.52"/><path id="Vector_7" data-name="Vector 7" class="cls-1" d="M65.89,39.16c-4.25,20.74-7,42.27-11.09,62.73"/><path id="Vector_8" data-name="Vector 8" class="cls-1" d="M70.79,109.37C57,102.06,56.22,96.08,46.14,111.73"/><path id="Vector_9" data-name="Vector 9" class="cls-1" d="M56.61,105.58c.37,1.83.63,3.73,1,5.53"/><path id="Vector_10" data-name="Vector 10" class="cls-1" d="M41.7,108.64a7.33,7.33,0,0,0,1.6.64"/><path id="Vector_11" data-name="Vector 11" class="cls-1" d="M37.23,25.21V22.58"/></g></g></g></svg>