<svg xmlns="http://www.w3.org/2000/svg" viewBox="0 0 120.28 145.5"><defs><style>.cls-1,.cls-2{fill:none;stroke:#a5b4ea;stroke-linecap:round;stroke-linejoin:round;stroke-opacity:0.9;stroke-width:7.2px;}.cls-2{opacity:0.5;isolation:isolate;}</style></defs><title>cocinarmdpi</title><g id="Capa_2" data-name="Capa 2"><g id="Capa_3" data-name="Capa 3"><g id="cocinero"><path id="Vector" class="cls-1" d="M53.33,35.86c-8.71,24.51,30.89,23.16,24,0"/><path id="Vector_2" data-name="Vector 2" class="cls-2" d="M78.06,30.71H52.82c-2.78,0-1.07-6.57-1.7-7.81S45.3,12.27,48.34,7.25s9.82-3,9.82-1.53S61.59,3.6,65.68,3.6s7.66,3.65,7.66,3.65,8.57-4.13,10.25,0q1.69,4.13-4,12.21V30.71"/><path id="Vector_3" data-name="Vector 3" class="cls-1" d="M54.12,73H77.17c-1,12.9-1.53,23,3.57,34.93H65.82q-2.11,0-13.55,1.36C53.36,93.7,54.12,88.58,54.12,73Z"/><path id="Vector_4" data-name="Vector 4" class="cls-1" d="M71.15,109.26Q72.26,127,72.27,127s-.72,5-2.15,14.93h6.1"/><path id="Vector_5" data-name="Vector 5" class="cls-1" d="M60.14,109.26l-2.7,16.32,1.35,16.32a6.73,6.73,0,0,0-5.86,0"/><path id="Vector_6" data-name="Vector 6" class="cls-1" d="M108.37,71.59a8.49,8.49,0,0,0-3.48,3.83Q90.15,86.57,88.34,82.91C87.13,80.47,83,73.76,76.87,62.79l-2.55,8.8"/><path id="Vector_7" data-name="Vector 7" class="cls-1" d="M24.66,66.11Q37.1,80,37.89,78.05T54,63.35v9.17"/><path id="Vector_8" data-name="Vector 8" class="cls-1" d="M20.6,53.72q1.71-10.57,7.51-7c5.81,3.53.68,16.16-2.18,18.7s-13.39,5.13-18.46,0-5.25-13.93,0-18.7S20.6,49.13,20.6,52.23"/><path id="Vector_9" data-name="Vector 9" class="cls-1" d="M111.58,58.6l-5.16,13.86"/><path id="Vector_10" data-name="Vector 10" class="cls-1" d="M111,58.83c-1.17-3.82.14-9.82,1.71-11.6s3-1.36,3.71,2.08a15.75,15.75,0,0,1-1.5,9.52C113.83,61.06,112.21,62.64,111,58.83Z"/></g></g></g></svg>