<svg xmlns="http://www.w3.org/2000/svg" viewBox="0 0 106.81 142.33"><defs><style>.cls-1,.cls-2{fill:none;stroke:#a5b4ea;stroke-linecap:round;stroke-linejoin:round;}.cls-1{stroke-width:7.2px;}.cls-2{stroke-width:6.3px;opacity:0.5;isolation:isolate;}</style></defs><title>codemdpi</title><g id="Capa_2" data-name="Capa 2"><g id="Capa_3" data-name="Capa 3"><g id="Estudiar"><path id="Vector" class="cls-1" d="M32.55,7.26c3-2.41,8.05-3.35,12-3.61C53.44,3.07,64,7.49,66.51,15.57c4.44,14.1-10.23,33-27.72,25-8.29-3.74-11.22-10.21-11-18.22"/><path id="Vector_2" data-name="Vector 2" class="cls-1" d="M31.05,48.7c-1.21.49-.4.19-1.59,3.63-3,13.62,1.13,37.61,1.3,38.2"/><path id="Vector_3" data-name="Vector 3" class="cls-1" d="M67.31,93.91a14,14,0,0,1-2-.26c-.47-.12-.93-.27-1.39-.42-.91-.23-17-1-18.63-1-1.75,0-9.1.1-10.84,0a6.26,6.26,0,0,1-3.34-1"/><path id="Vector_4" data-name="Vector 4" class="cls-1" d="M66.65,94.57c1,24.94,0,40.14,0,42.59,0,1.45,4.63,2,7.25,1.26"/><path id="Vector_5" data-name="Vector 5" class="cls-1" d="M73.9,71.46c-.9.4-4.25-2.54-5.19-2.37s-2.06.28-3.1.38a16.53,16.53,0,0,1-3.85.06c-3.19-.41-10.89-1.68-13.93-2.71C44.59,65.73,31.54,53.87,31.06,53"/><path id="Vector_6" data-name="Vector 6" class="cls-2" d="M103.66,51.33c-.78.63-10.77,17.7-11.32,18.5-.25.36-.51.7-.76,1a7.82,7.82,0,0,1-1.48,1.84c-1.32,1-24,.66-26,0"/><path id="Vector_7" data-name="Vector 7" class="cls-2" d="M10.17,94.81a6.17,6.17,0,0,1,3.73-1.47c.4,0,33.94.92,35.59,1.25a13.2,13.2,0,0,1,4.62,1.54"/><path id="Vector_8" data-name="Vector 8" class="cls-2" d="M42,138.6a4.7,4.7,0,0,1-1.8-.75l-.88-.49-1.48-.81a29.4,29.4,0,0,0-5-2.14,25.36,25.36,0,0,0-3.29-.75h-.92c-.35.06-.69.13-1,.21a22.54,22.54,0,0,0-2.83,1.22c-1.13.67-3.31,2-4.38,2.76"/><path id="Vector_9" data-name="Vector 9" class="cls-2" d="M11.79,86c-4-9.47-8.65-27.33-8.64-37.9"/><path id="Vector_10" data-name="Vector 10" class="cls-2" d="M30.89,92.59l-.14,33"/></g></g></g></svg>