<svg xmlns="http://www.w3.org/2000/svg" viewBox="0 0 159.3 58.63"><defs><style>.cls-1,.cls-2{fill:none;stroke:#ff03e1;stroke-linecap:round;stroke-linejoin:round;stroke-opacity:0.9;}.cls-1{stroke-width:7.2px;}.cls-2{stroke-width:2.7px;opacity:0.5;isolation:isolate;}</style></defs><title>dormirmdpi</title><g id="Capa_2" data-name="Capa 2"><g id="Capa_3" data-name="Capa 3"><g id="Descansar"><path id="Vector" class="cls-1" d="M51.77,8.57c13.94,5.06,3.6,27.93-10.45,22.25C28.76,25.74,28.39-4.57,57.58,5.71"/><path id="Vector_2" data-name="Vector 2" class="cls-1" d="M77.08,55C63,53.23,60,33.81,60.88,33.88A71.48,71.48,0,0,0,90,36.58c1.83-.32,37-8.15,48.57-18.9"/><path id="Vector_3" data-name="Vector 3" class="cls-1" d="M126,38.38a6,6,0,0,0-1.85-2c-.32-.25-.67-.48-1-.71-.9-.61-16.57-10.33-18.42-11.33a6,6,0,0,0-3-.81l0,0,0,0S89.35,34.47,89.1,35.23"/><path id="Vector_4" data-name="Vector 4" class="cls-2" d="M1.35,9.54l.42.28c.75,1.76,41.92,29.36,81,28.54,38-.8,71.07-27.18,75.16-31.48"/></g></g></g></svg>