<svg xmlns="http://www.w3.org/2000/svg" viewBox="0 0 134.97 124.53"><defs><style>.cls-1{fill:none;stroke:#b3c3ff;stroke-linecap:round;stroke-linejoin:round;stroke-opacity:0.9;stroke-width:7.2px;}</style></defs><title>estudiarmdpi</title><g id="Capa_2" data-name="Capa 2"><g id="Capa_3" data-name="Capa 3"><g id="trabajar"><path id="Vector" class="cls-1" d="M43.83,108.5c-48.4,0-47.3,0-27.13-46.57V91.61"/><path id="Vector_2" data-name="Vector 2" class="cls-1" d="M123.55,70.22c-9.06-.34-58.11-.76-61.66,2.79-5.12,5.13-17.79,40.49-12.72,47.25,34.47.66,60.53,1.36,65.63-.68,2.63-1,4.73-4.08,5.9-6.82.93-2.16,10.67-35.18,10.67-36.11"/><path id="Vector_4" data-name="Vector 4" class="cls-1" d="M26.68,23.84C15.3,61.23,66.21,77.06,79.7,39.47,87,19.09,62.41-10.9,37.21,11.61"/><path id="Vector_5" data-name="Vector 5" class="cls-1" d="M62,38.65A22.83,22.83,0,0,0,63,35.43"/><path id="Vector_6" data-name="Vector 6" class="cls-1" d="M51.45,38.43a10.44,10.44,0,0,0,.76-3"/></g></g></g></svg>