<svg xmlns="http://www.w3.org/2000/svg" viewBox="0 0 84.2 105.55"><defs><style>.cls-1{fill:none;stroke:#b3c3ff;stroke-linecap:round;stroke-linejoin:round;stroke-opacity:0.9;stroke-width:7.2px;}</style></defs><title>futbolmdpi</title><g id="Capa_2" data-name="Capa 2"><g id="Capa_3" data-name="Capa 3"><g id="futbol"><path id="Vector" class="cls-1" d="M18.79,44.39C29,38.9,46.13,34.59,48.65,35m0,0L40.27,58.28C37.56,63,30.47,74.1,29,74.73c-1.83.78-19.38-14.88-20.95-14.88-1.25,0-3.49,3.14-4.45,4.7M48.65,35A113.84,113.84,0,0,1,64.1,40.55m0,0c7.24,3.1,14.64,7,16.5,10.14M64.1,40.55c-2.71,7.13-10.48,23-10.48,24,0,1.31,18.6,5.76,19.38,8.63S68,102,69.34,102a60.32,60.32,0,0,0,7.33-1.57"/><path id="Vector_2" data-name="Vector 2" class="cls-1" d="M55.69,9.23c16.93-17.68,31.21,11.41,13.92,17C55.94,30.58,46.12,18.84,56.92,8.44"/><path id="Vector_3" data-name="Vector 3" class="cls-1" d="M38.76,86C53.61,70.2,66.13,96.15,51,101.11,39,105,30.37,94.55,39.84,85.27"/></g></g></g></svg>