<svg xmlns="http://www.w3.org/2000/svg" viewBox="0 0 106.65 144.9"><defs><style>.cls-1,.cls-2,.cls-3{fill:none;stroke:#b3c3ff;stroke-linecap:round;stroke-linejoin:round;stroke-opacity:0.9;}.cls-1{stroke-width:7.2px;}.cls-2{stroke-width:3.6px;}.cls-3{stroke-width:5.4px;}</style></defs><title>musciamdpi</title><g id="Capa_2" data-name="Capa 2"><g id="Capa_3" data-name="Capa 3"><g id="Musica"><path id="Vector" class="cls-1" d="M29.89,35.06C60.17-4.11,115.38,59,76.58,84.76,46.43,104.82,11,73.55,25.19,46.35"/><path id="Vector_2" data-name="Vector 2" class="cls-1" d="M63.25,56.38a.42.42,0,0,0,.21.18l.38.25a3.29,3.29,0,0,0,.42.2,4.85,4.85,0,0,0,.81.3l.61.13a6.28,6.28,0,0,0,.75,0c.22,0,.44,0,.66,0l.65-.08A7.15,7.15,0,0,0,69,57a3.06,3.06,0,0,0,1-.51,1.43,1.43,0,0,0,.29-.32"/><path id="Vector_3" data-name="Vector 3" class="cls-1" d="M43.56,56.21c.1.13.22.25.33.37a3.2,3.2,0,0,0,.47.43,5.06,5.06,0,0,0,2.28,1,5.47,5.47,0,0,0,2.81-.29,4.83,4.83,0,0,0,.52-.23,3.82,3.82,0,0,0,.58-.37"/><path id="Vector_4" data-name="Vector 4" class="cls-1" d="M32.85,106.65s-.45,4.64-.9,13.3-.9,21.35-.9,21.35"/><path id="Vector_5" data-name="Vector 5" class="cls-1" d="M78.08,140c0-15.81-1.58-34.39-1.58-34.39,13.39.27,19.74,0,24.92-11.78,3.67-8.33,0-34.38,0-34.38"/><path id="Vector_6" data-name="Vector 6" class="cls-1" d="M33.3,104.28a38.34,38.34,0,0,1-18.8-3.4c-10-4.53-8.23-32,0-44.18"/><path id="Vector_7" data-name="Vector 7" class="cls-2" d="M15.9,53.77C19.06,26.82,17.21,3,53.46,3c32.29,0,44,21.26,44,52.6"/><path id="Vector_8" data-name="Vector 8" class="cls-1" d="M93.12,42.09a51,51,0,0,1,2.41,15c0,8-1,12-1.26,15"/><path id="Vector_9" data-name="Vector 9" class="cls-1" d="M18.44,41.53s-2.51,9.55-2.51,16.82-.28,7.2,1,16.83"/><path id="Vector_10" data-name="Vector 10" class="cls-3" d="M5.68,21.09c4.91-2.15,6.63,5.13,1.8,6.93s-5.75-4.31-3.84-5.73c.32-.24.65-.17,1-.48"/><path id="Vector_11" data-name="Vector 11" class="cls-3" d="M21,17.5c5.25-4.91,9.65,5.53,3.48,7.06-4.55,1.13-6.28-3-2.78-6.5"/><path id="Vector_12" data-name="Vector 12" class="cls-3" d="M10.8,24.3c.67-1.86,0-15.31.68-16.4a67.48,67.48,0,0,1,9-3.66,33.81,33.81,0,0,1,6.77-1.53c.48.55,0,13.69,0,16"/></g></g></g></svg>