<svg xmlns="http://www.w3.org/2000/svg" viewBox="0 0 108.45 153.86"><defs><style>.cls-1,.cls-2,.cls-3{fill:none;stroke-linecap:round;stroke-linejoin:round;}.cls-1{stroke:#a5b4ea;}.cls-1,.cls-2{stroke-width:7.2px;}.cls-2,.cls-3{stroke:#6b7fc7;}.cls-3{stroke-width:3.6px;}</style></defs><title>parrilamdpi</title><g id="Capa_2" data-name="Capa 2"><g id="Capa_3" data-name="Capa 3"><g id="cocinar"><path id="Vector" class="cls-1" d="M78.2,43.31c-9.62,14.44-10,24.91-24.06,32.49"/><path id="Vector_2" data-name="Vector 2" class="cls-1" d="M96.25,43.31c5.11,13.39,11.43,21.06,7.22,46.93"/><path id="Vector_3" data-name="Vector 3" class="cls-1" d="M80,6.48c17.54-10.54,29,10.4,14.38,22.39a15.63,15.63,0,0,1-10.22,3.61c-13.43,0-9.64-14.65-6.81-22.75"/><path id="Vector_4" data-name="Vector 4" class="cls-1" d="M78.08,43.53c-.51,35.35-1.69,70.69-2.3,106"/><path id="Vector_5" data-name="Vector 5" class="cls-1" d="M96.51,43.53c-.68,34.64-1.17,71-1.17,105.74"/><path id="Vector_6" data-name="Vector 6" class="cls-1" d="M3.6,87.38c6.73,30.62,44.58,27,54.15.23"/><path id="Vector_7" data-name="Vector 7" class="cls-1" d="M4.8,86.18H56.54"/><path id="Vector_8" data-name="Vector 8" class="cls-2" d="M22.05,81.38c6.37.18,12.73-.54,19.09-.51"/><path id="Vector_9" data-name="Vector 9" class="cls-2" d="M20.49,112.64c-5.37,12-7.8,24.91-13,36.86"/><path id="Vector_10" data-name="Vector 10" class="cls-2" d="M31.31,114.94c-.62,11.32,0,22.54,0,35.32"/><path id="Vector_11" data-name="Vector 11" class="cls-2" d="M42,112.64c2.22,12.46,6,24.49,8.45,36.86"/><path id="Vector_12" data-name="Vector 12" class="cls-2" d="M20,129.94c6.77,1.43,13.65,1.19,20.45,1.19"/><path id="Vector_13" data-name="Vector 13" class="cls-3" d="M19.32,54c-8.62,9.48,7.37,10.19.24,18.31"/><path id="Vector_14" data-name="Vector 14" class="cls-3" d="M31.23,51.68c-6.62,6.76,3.11,10.65-2.14,18.05"/><path id="Vector_15" data-name="Vector 15" class="cls-3" d="M44.11,52.13C30.44,59.65,50,61.73,40.65,70"/><path id="Vector_16" data-name="Vector 16" class="cls-1" d="M37.25,79.79c6.17.11,20.08-3.13,26-4.21"/></g></g></g></svg>