<svg xmlns="http://www.w3.org/2000/svg" viewBox="0 0 129.22 128.61"><defs><style>.cls-1{fill:none;stroke:#a5b4ea;stroke-linecap:round;stroke-linejoin:round;stroke-width:7.2px;}</style></defs><title>paseomdpi</title><g id="Capa_2" data-name="Capa 2"><g id="Capa_3" data-name="Capa 3"><g id="Pasear"><path id="Vector" class="cls-1" d="M87.15,86.58C103.72,68.37,136.5,88.3,122,111.5c-16.2,26-42.7,11.22-37.66-16.54"/><path id="Vector_2" data-name="Vector 2" class="cls-1" d="M4.06,94.12c0-1.85,4.28-10,12.93-13.83C33.71,73,53.57,89.74,45.68,108.44,34.21,135.61,5.64,127,3.6,100"/><path id="Vector_3" data-name="Vector 3" class="cls-1" d="M80.69,67.21c-7.42,1.88-23.54-4-29.83.7-6,4.48-10.12,17-14.91,23.13-.8,1-10.75,10.58-10.49,11.34.19.57,22.5-.46,23.77-.46s10.71.93,11.88-.23c5.7-5.66,32.63-51.36,39.62-38.87"/><path id="Vector_4" data-name="Vector 4" class="cls-1" d="M83.73,72.2c6.1,10.33,9.83,24.33,18.82,32.17"/><path id="Vector_5" data-name="Vector 5" class="cls-1" d="M61.57,98.82c3.54,12.69-24.6,5.49-25.1,3.89-.83-2.65,4.41-3.09,6.85-4.13,4.24-1.8,12.87-.45,15.28.49"/><path id="Vector_6" data-name="Vector 6" class="cls-1" d="M38.81,52.77c13,13.3,15.32,27.8,12,43.71"/><path id="Vector_7" data-name="Vector 7" class="cls-1" d="M38.81,52.77c6.8-6.84,15.7-15.31,21.85-18.82"/><path id="Vector_8" data-name="Vector 8" class="cls-1" d="M62.66,36.38c1.52,6.37.32,13.11,1.47,19.43"/><path id="Vector_9" data-name="Vector 9" class="cls-1" d="M64.91,56.5c8.61-.93,15.27,6.37,23.07,7.81"/><path id="Vector_10" data-name="Vector 10" class="cls-1" d="M67.79,18.29A19.21,19.21,0,0,1,73.7,9.5c2.63-2.39,8.66-2.47,12-2.09,21.46,2.43-11.95,50.47-18.4,14.35"/><path id="Vector_11" data-name="Vector 11" class="cls-1" d="M86.73,18.78c-3.34-1.36-7.11-1.55-10.72-2C31.93,11,82.6-8,91.62,13.83"/></g></g></g></svg>