<svg xmlns="http://www.w3.org/2000/svg" viewBox="0 0 158.4 107.9"><defs><style>.cls-1,.cls-2{fill:none;stroke:#a5b4ea;stroke-linecap:round;stroke-linejoin:round;}.cls-1{stroke-width:5.4px;}.cls-2{stroke-width:7.2px;}</style></defs><title>seriemdpi</title><g id="Capa_2" data-name="Capa 2"><g id="Capa_3" data-name="Capa 3"><g id="Series"><path id="Vector" class="cls-1" d="M18.93,63.51c-4.65-39.27,35.3-34,60.59-34,26,0,56.46-6.41,56.46,32.5"/><path id="Vector_2" data-name="Vector 2" class="cls-1" d="M24.57,67.52c37.78,2.28,75.79.8,113.74.8"/><path id="Vector_3" data-name="Vector 3" class="cls-1" d="M26.21,98c37.85-4.92,79.2,0,117.57,0"/><path id="Vector_4" data-name="Vector 4" class="cls-1" d="M141.51,90.67c-.86-7.3-3.66-28.09,6.33-28.09,9.06,0,10.43,33.19,3.36,35.14"/><path id="Vector_5" data-name="Vector 5" class="cls-1" d="M21.1,99.6a102.65,102.65,0,0,0-.45-16.9c-4.68-54.55-35.76,18.47-3.43,16"/><path id="Vector_6" data-name="Vector 6" class="cls-1" d="M11.43,102.09c0,1-1.07,1.42-1.6,2.13"/><path id="Vector_7" data-name="Vector 7" class="cls-1" d="M149.24,104.39l-.54.81"/><path id="Vector_8" data-name="Vector 8" class="cls-2" d="M89.68,8.36c10.83-14.91,30.58,9.09,16.7,18.91C95.6,34.91,82.94,23,88,12.66"/><path id="Vector_9" data-name="Vector 9" class="cls-2" d="M70.65,66.88c15.43-14.95,10.15-24.14,22-28.63m13.94,0c5.2,13.9,7,19.54,19,29.7"/><path id="Vector_10" data-name="Vector 10" class="cls-2" d="M106.1,39.72c-1.94,8.93,0,17.76,0,26.25,12.26,8.09,13.78,25.11,13.78,30.6q0,5.49,5.63,5.49"/><path id="Vector_11" data-name="Vector 11" class="cls-2" d="M92.69,38c0,6.5,0,28.21-1.49,29.41C80.16,76.61,75.27,90.32,74,100l-2.91.72"/></g></g></g></svg>