<svg xmlns="http://www.w3.org/2000/svg" viewBox="0 0 112.9 137.7"><defs><style>.cls-1,.cls-2{fill:none;stroke:#a5b4ea;stroke-linecap:round;stroke-linejoin:round;}.cls-1{stroke-width:7.2px;}.cls-2{stroke-width:6.3px;opacity:0.5;isolation:isolate;}</style></defs><title>viajarmdpi</title><g id="Capa_2" data-name="Capa 2"><g id="Capa_3" data-name="Capa 3"><g id="Viaje"><path id="Vector" class="cls-1" d="M81.72,9.63c13.91-18.9,39.28,11.53,21.45,24C89.32,43.3,73.05,28.21,79.56,15.08"/><path id="Vector_2" data-name="Vector 2" class="cls-1" d="M88.16,48.56q.54,20.16.53,23.62T85,93l-.84,18.48-15.4,17.81,6.66,4.14"/><path id="Vector_3" data-name="Vector 3" class="cls-1" d="M89.32,47.93l13.9,33.15q-.51,2,6.08,4.32"/><path id="Vector_4" data-name="Vector 4" class="cls-1" d="M89.32,48.56,68.25,57.23,59,74.23q-4.65-2.25-4.65,0v4.92"/><path id="Vector_5" data-name="Vector 5" class="cls-1" d="M85.57,88.52q9.62,15.27,10,18.31t4.87,26.64l5.08-.15"/><path id="Vector_6" data-name="Vector 6" class="cls-2" d="M55,79.15l-36.22,45"/><path id="Vector_7" data-name="Vector 7" class="cls-2" d="M43.74,93.43Q31.39,83.6,28.08,83.61c-3.33,0-4.93-1.13-9.15,4.67Q14.72,94.07,4,107.5q-1.61,3.5,0,4.93t15.18,11.68"/><path id="Vector_8" data-name="Vector 8" class="cls-1" d="M22.67,126.61c.67,2.12.78,4.64-.82,5.93-2.64,2.12-8.39,2.88-7.33-3"/></g></g></g></svg>